<?xml version="1.0" encoding="UTF-8" standalone="no"?>
<!-- Created with Inkscape (http://www.inkscape.org/) -->

<svg
   width="1024"
   height="1024"
   viewBox="0 0 270.93333 270.93334"
   version="1.1"
   id="svg5"
   inkscape:version="1.1.1 (3bf5ae0d25, 2021-09-20)"
   sodipodi:docname="icon.svg"
   inkscape:export-filename="/home/niklas/Projects/gdscript-interfaces/icon.png"
   inkscape:export-xdpi="96"
   inkscape:export-ydpi="96"
   xmlns:inkscape="http://www.inkscape.org/namespaces/inkscape"
   xmlns:sodipodi="http://sodipodi.sourceforge.net/DTD/sodipodi-0.dtd"
   xmlns="http://www.w3.org/2000/svg"
   xmlns:svg="http://www.w3.org/2000/svg">
  <sodipodi:namedview
     id="namedview7"
     pagecolor="#505050"
     bordercolor="#eeeeee"
     borderopacity="1"
     inkscape:pageshadow="0"
     inkscape:pageopacity="0"
     inkscape:pagecheckerboard="0"
     inkscape:document-units="mm"
     showgrid="false"
     units="px"
     width="1024px"
     inkscape:snap-page="true"
     inkscape:lockguides="false"
     inkscape:zoom="0.51342608"
     inkscape:cx="633.97636"
     inkscape:cy="617.42091"
     inkscape:window-width="1600"
     inkscape:window-height="858"
     inkscape:window-x="0"
     inkscape:window-y="0"
     inkscape:window-maximized="1"
     inkscape:current-layer="layer1"
     inkscape:object-paths="true" />
  <defs
     id="defs2">
    <marker
       style="overflow:visible;"
       id="Arrow1Send"
       refX="0.0"
       refY="0.0"
       orient="auto"
       inkscape:stockid="Arrow1Send"
       inkscape:isstock="true">
      <path
         transform="scale(0.2) rotate(180) translate(6,0)"
         style="fill-rule:evenodd;fill:context-stroke;stroke:context-stroke;stroke-width:1.0pt;"
         d="M 0.0,0.0 L 5.0,-5.0 L -12.5,0.0 L 5.0,5.0 L 0.0,0.0 z "
         id="path14399" />
    </marker>
    <marker
       style="overflow:visible;"
       id="Arrow1Mend"
       refX="0.0"
       refY="0.0"
       orient="auto"
       inkscape:stockid="Arrow1Mend"
       inkscape:isstock="true">
      <path
         transform="scale(0.4) rotate(180) translate(10,0)"
         style="fill-rule:evenodd;fill:context-stroke;stroke:context-stroke;stroke-width:1.0pt;"
         d="M 0.0,0.0 L 5.0,-5.0 L -12.5,0.0 L 5.0,5.0 L 0.0,0.0 z "
         id="path14393" />
    </marker>
    <marker
       style="overflow:visible"
       id="TriangleOutM"
       refX="0.0"
       refY="0.0"
       orient="auto"
       inkscape:stockid="TriangleOutM"
       inkscape:isstock="true">
      <path
         transform="scale(0.4)"
         style="fill-rule:evenodd;fill:context-stroke;stroke:context-stroke;stroke-width:1.0pt"
         d="M 5.77,0.0 L -2.88,5.0 L -2.88,-5.0 L 5.77,0.0 z "
         id="path14529" />
    </marker>
    <marker
       style="overflow:visible"
       id="TriangleOutL"
       refX="0.0"
       refY="0.0"
       orient="auto"
       inkscape:stockid="TriangleOutL"
       inkscape:isstock="true">
      <path
         transform="scale(0.8)"
         style="fill-rule:evenodd;fill:context-stroke;stroke:context-stroke;stroke-width:1.0pt"
         d="M 5.77,0.0 L -2.88,5.0 L -2.88,-5.0 L 5.77,0.0 z "
         id="path14526" />
    </marker>
    <clipPath
       clipPathUnits="userSpaceOnUse"
       id="clipPath16397">
      <rect
         style="fill:#355570;fill-opacity:1;stroke:none;stroke-width:6.62681;stroke-linecap:round;stroke-miterlimit:4;stroke-dasharray:none;stroke-opacity:1"
         id="rect16399"
         width="256.48901"
         height="256.48901"
         x="7.1768599"
         y="7.25177"
         rx="28.400608"
         ry="28.400608" />
    </clipPath>
    <symbol
       id="m"
       overflow="visible">
      <path
         d="m29.312-1.75c-1.5117 0.78125-3.0898 1.3711-4.7344 1.7656-1.6367 0.40625-3.3398 0.60938-5.1094 0.60938-5.3125 0-9.5273-1.4844-12.641-4.4531-3.1055-2.9688-4.6562-7-4.6562-12.094s1.5508-9.125 4.6562-12.094c3.1133-2.9688 7.3281-4.4531 12.641-4.4531 1.7695 0 3.4727 0.19922 5.1094 0.59375 1.6445 0.39844 3.2227 0.99219 4.7344 1.7812v6.5938c-1.5312-1.0391-3.0391-1.8008-4.5156-2.2812-1.4805-0.48828-3.0391-0.73438-4.6719-0.73438-2.9375 0-5.2461 0.94531-6.9219 2.8281-1.6797 1.875-2.5156 4.4648-2.5156 7.7656 0 3.293 0.83594 5.8828 2.5156 7.7656 1.6758 1.875 3.9844 2.8125 6.9219 2.8125 1.6328 0 3.1914-0.23828 4.6719-0.71875 1.4766-0.48828 2.9844-1.2539 4.5156-2.2969z"
         id="path862" />
    </symbol>
    <symbol
       id="i"
       overflow="visible">
      <path
         d="m21.453-17.406c-0.67969-0.3125-1.3516-0.53906-2.0156-0.6875-0.65625-0.15625-1.3203-0.23438-1.9844-0.23438-1.9688 0-3.4844 0.63281-4.5469 1.8906-1.0547 1.2617-1.5781 3.0703-1.5781 5.4219v11.016h-7.6562v-23.922h7.6562v3.9219c0.97656-1.5625 2.1016-2.7031 3.375-3.4219 1.2812-0.71875 2.8125-1.0781 4.5938-1.0781 0.25 0 0.52344 0.011719 0.82812 0.03125 0.30078 0.023438 0.73438 0.070312 1.2969 0.14062z"
         id="path865" />
    </symbol>
    <symbol
       id="a"
       overflow="visible">
      <path
         d="m27.562-12.031v2.1875h-17.891c0.1875 1.793 0.83203 3.1367 1.9375 4.0312 1.1133 0.89844 2.6719 1.3438 4.6719 1.3438 1.6016 0 3.25-0.23438 4.9375-0.70312 1.6875-0.47656 3.4219-1.2031 5.2031-2.1719v5.8906c-1.8047 0.6875-3.6094 1.2031-5.4219 1.5469-1.8125 0.35156-3.6211 0.53125-5.4219 0.53125-4.3359 0-7.7031-1.0977-10.109-3.2969-2.3984-2.207-3.5938-5.2969-3.5938-9.2656 0-3.9062 1.1758-6.9727 3.5312-9.2031 2.3633-2.2383 5.6094-3.3594 9.7344-3.3594 3.7578 0 6.7695 1.1367 9.0312 3.4062 2.2578 2.2617 3.3906 5.2812 3.3906 9.0625zm-7.8594-2.5312c0-1.457-0.42969-2.6289-1.2812-3.5156-0.84375-0.89453-1.9492-1.3438-3.3125-1.3438-1.4922 0-2.6992 0.41797-3.625 1.25-0.91797 0.83594-1.4922 2.0391-1.7188 3.6094z"
         id="path868" />
    </symbol>
    <symbol
       id="d"
       overflow="visible">
      <path
         d="m14.391-10.766c-1.5938 0-2.793 0.27344-3.5938 0.8125-0.80469 0.54297-1.2031 1.3398-1.2031 2.3906 0 0.96875 0.32031 1.7305 0.96875 2.2812 0.64453 0.54297 1.5469 0.8125 2.7031 0.8125 1.4375 0 2.6445-0.51562 3.625-1.5469 0.98828-1.0312 1.4844-2.3203 1.4844-3.875v-0.875zm11.688-2.8906v13.656h-7.7031v-3.5469c-1.0312 1.4492-2.1875 2.5078-3.4688 3.1719s-2.8398 1-4.6719 1c-2.4805 0-4.4961-0.72266-6.0469-2.1719-1.543-1.4453-2.3125-3.3203-2.3125-5.625 0-2.8125 0.96094-4.8672 2.8906-6.1719 1.9375-1.3125 4.9688-1.9688 9.0938-1.9688h4.5156v-0.60938c0-1.207-0.48047-2.0938-1.4375-2.6562-0.94922-0.5625-2.4375-0.84375-4.4688-0.84375-1.6367 0-3.1562 0.16797-4.5625 0.5-1.4062 0.32422-2.7188 0.8125-3.9375 1.4688v-5.8281c1.6445-0.40625 3.2891-0.70703 4.9375-0.90625 1.6562-0.20703 3.3047-0.3125 4.9531-0.3125 4.3203 0 7.4375 0.85547 9.3438 2.5625 1.9141 1.6992 2.875 4.4609 2.875 8.2812z"
         id="path871" />
    </symbol>
    <symbol
       id="h"
       overflow="visible">
      <path
         d="m12.031-30.719v6.7969h7.875v5.4688h-7.875v10.141c0 1.1172 0.21875 1.8711 0.65625 2.2656 0.4375 0.38672 1.3125 0.57812 2.625 0.57812h3.9375v5.4688h-6.5625c-3.0234 0-5.1641-0.62891-6.4219-1.8906-1.2617-1.2578-1.8906-3.3984-1.8906-6.4219v-10.141h-3.7969v-5.4688h3.7969v-6.7969z"
         id="path874" />
    </symbol>
    <symbol
       id="g"
       overflow="visible">
      <path
         d="m19.953-20.422v-12.812h7.6875v33.234h-7.6875v-3.4531c-1.0547 1.4062-2.2148 2.4375-3.4844 3.0938-1.2734 0.65625-2.7422 0.98438-4.4062 0.98438-2.9492 0-5.3711-1.1719-7.2656-3.5156-1.8867-2.3438-2.8281-5.3594-2.8281-9.0469s0.94141-6.7031 2.8281-9.0469c1.8945-2.3438 4.3164-3.5156 7.2656-3.5156 1.6562 0 3.1172 0.33594 4.3906 1 1.2812 0.65625 2.4453 1.6836 3.5 3.0781zm-5.0469 15.484c1.6445 0 2.8945-0.59766 3.75-1.7969 0.86328-1.1953 1.2969-2.9297 1.2969-5.2031 0-2.2812-0.43359-4.0195-1.2969-5.2188-0.85547-1.1953-2.1055-1.7969-3.75-1.7969-1.625 0-2.8711 0.60156-3.7344 1.7969-0.85547 1.1992-1.2812 2.9375-1.2812 5.2188 0 2.2734 0.42578 4.0078 1.2812 5.2031 0.86328 1.1992 2.1094 1.7969 3.7344 1.7969z"
         id="path877" />
    </symbol>
    <symbol
       id="f"
       overflow="visible">
      <path
         d="m16.406-4.9375c1.6328 0 2.8828-0.59766 3.75-1.7969 0.86328-1.1953 1.2969-2.9297 1.2969-5.2031 0-2.2812-0.43359-4.0195-1.2969-5.2188-0.86719-1.1953-2.1172-1.7969-3.75-1.7969-1.6367 0-2.8906 0.60547-3.7656 1.8125-0.875 1.1992-1.3125 2.9336-1.3125 5.2031 0 2.2617 0.4375 3.9961 1.3125 5.2031 0.875 1.1992 2.1289 1.7969 3.7656 1.7969zm-5.0781-15.484c1.0508-1.3945 2.2188-2.4219 3.5-3.0781 1.2812-0.66406 2.7539-1 4.4219-1 2.9453 0 5.3672 1.1719 7.2656 3.5156 1.8945 2.3438 2.8438 5.3594 2.8438 9.0469s-0.94922 6.7031-2.8438 9.0469c-1.8984 2.3438-4.3203 3.5156-7.2656 3.5156-1.668 0-3.1406-0.33594-4.4219-1s-2.4492-1.6914-3.5-3.0781v3.4531h-7.6562v-33.234h7.6562z"
         id="path880" />
    </symbol>
    <symbol
       id="c"
       overflow="visible">
      <path
         d="m0.53125-23.922h7.6562l6.4219 16.234 5.4688-16.234h7.6562l-10.062 26.188c-1.0117 2.6641-2.1953 4.5234-3.5469 5.5781-1.3438 1.0625-3.1211 1.5938-5.3281 1.5938h-4.4219v-5.0156h2.3906c1.3008 0 2.2422-0.21094 2.8281-0.625 0.59375-0.40625 1.0547-1.1484 1.3906-2.2188l0.20312-0.65625z"
         id="path883" />
    </symbol>
    <symbol
       id="b"
       overflow="visible">
      <path
         d="m25.844-19.953c0.96875-1.4766 2.1172-2.6016 3.4531-3.375 1.332-0.78125 2.7969-1.1719 4.3906-1.1719 2.75 0 4.8438 0.85156 6.2812 2.5469 1.4375 1.6875 2.1562 4.1523 2.1562 7.3906v14.562h-7.6875v-12.469c0.007812-0.1875 0.019531-0.37891 0.03125-0.57812 0.007812-0.19531 0.015625-0.48438 0.015625-0.85938 0-1.6953-0.25-2.9258-0.75-3.6875-0.5-0.75781-1.3086-1.1406-2.4219-1.1406-1.4492 0-2.5703 0.60156-3.3594 1.7969-0.79297 1.1992-1.2031 2.9297-1.2344 5.1875v11.75h-7.6875v-12.469c0-2.6562-0.23047-4.3633-0.6875-5.125-0.44922-0.75781-1.2578-1.1406-2.4219-1.1406-1.4688 0-2.6055 0.60547-3.4062 1.8125-0.79297 1.1992-1.1875 2.918-1.1875 5.1562v11.766h-7.7031v-23.922h7.7031v3.5c0.9375-1.3516 2.0156-2.3672 3.2344-3.0469 1.2188-0.6875 2.5547-1.0312 4.0156-1.0312 1.6562 0 3.1133 0.40234 4.375 1.2031 1.2695 0.79297 2.2344 1.9062 2.8906 3.3438z"
         id="path886" />
    </symbol>
    <symbol
       id="e"
       overflow="visible">
      <path
         d="m27.734-14.562v14.562h-7.7031v-11.156c0-2.0625-0.046875-3.4844-0.14062-4.2656-0.085937-0.78125-0.24219-1.3594-0.46875-1.7344-0.30469-0.5-0.71094-0.88281-1.2188-1.1562-0.51172-0.28125-1.0938-0.42188-1.75-0.42188-1.5938 0-2.8516 0.61719-3.7656 1.8438-0.90625 1.2305-1.3594 2.9375-1.3594 5.125v11.766h-7.6562v-23.922h7.6562v3.5c1.1445-1.3945 2.3633-2.4219 3.6562-3.0781 1.3008-0.66406 2.7383-1 4.3125-1 2.7578 0 4.8516 0.85156 6.2812 2.5469 1.4375 1.6875 2.1562 4.1523 2.1562 7.3906z"
         id="path889" />
    </symbol>
    <symbol
       id="l"
       overflow="visible">
      <path
         d="m11.328-3.4531v12.547h-7.6562v-33.016h7.6562v3.5c1.0508-1.3945 2.2188-2.4219 3.5-3.0781 1.2812-0.66406 2.7539-1 4.4219-1 2.9453 0 5.3672 1.1719 7.2656 3.5156 1.8945 2.3438 2.8438 5.3594 2.8438 9.0469s-0.94922 6.7031-2.8438 9.0469c-1.8984 2.3438-4.3203 3.5156-7.2656 3.5156-1.668 0-3.1406-0.33594-4.4219-1s-2.4492-1.6914-3.5-3.0781zm5.0781-15.5c-1.6367 0-2.8906 0.60547-3.7656 1.8125-0.875 1.1992-1.3125 2.9336-1.3125 5.2031 0 2.2617 0.4375 3.9961 1.3125 5.2031 0.875 1.1992 2.1289 1.7969 3.7656 1.7969 1.6328 0 2.8828-0.59766 3.75-1.7969 0.86328-1.1953 1.2969-2.9297 1.2969-5.2031 0-2.2812-0.43359-4.0195-1.2969-5.2188-0.86719-1.1953-2.1172-1.7969-3.75-1.7969z"
         id="path892" />
    </symbol>
    <symbol
       id="k"
       overflow="visible">
      <path
         d="m15.062-19.031c-1.6992 0-2.9961 0.60938-3.8906 1.8281-0.88672 1.2188-1.3281 2.9766-1.3281 5.2656 0 2.293 0.44141 4.0469 1.3281 5.2656 0.89453 1.2188 2.1914 1.8281 3.8906 1.8281 1.6641 0 2.9375-0.60938 3.8125-1.8281 0.88281-1.2188 1.3281-2.9727 1.3281-5.2656 0-2.2891-0.44531-4.0469-1.3281-5.2656-0.875-1.2188-2.1484-1.8281-3.8125-1.8281zm0-5.4688c4.1133 0 7.3281 1.1094 9.6406 3.3281s3.4688 5.2969 3.4688 9.2344c0 3.9297-1.1562 7.0078-3.4688 9.2344-2.3125 2.2188-5.5273 3.3281-9.6406 3.3281-4.1367 0-7.3711-1.1094-9.7031-3.3281-2.3242-2.2266-3.4844-5.3047-3.4844-9.2344 0-3.9375 1.1602-7.0156 3.4844-9.2344 2.332-2.2188 5.5664-3.3281 9.7031-3.3281z"
         id="path895" />
    </symbol>
    <symbol
       id="j"
       overflow="visible">
      <path
         d="m19.953-4.0625c-1.0547 1.3984-2.2148 2.4219-3.4844 3.0781-1.2734 0.65625-2.7422 0.98438-4.4062 0.98438-2.918 0-5.3281-1.1484-7.2344-3.4531-1.9062-2.3008-2.8594-5.2266-2.8594-8.7812 0-3.582 0.95312-6.5156 2.8594-8.7969s4.3164-3.4219 7.2344-3.4219c1.6641 0 3.1328 0.32812 4.4062 0.98438 1.2695 0.64844 2.4297 1.6797 3.4844 3.0938v-3.5469h7.6875v21.516c0 3.8438-1.2148 6.7734-3.6406 8.7969-2.4297 2.0312-5.9492 3.0469-10.562 3.0469-1.5 0-2.9492-0.11719-4.3438-0.34375-1.3984-0.21875-2.7969-0.57031-4.2031-1.0469v-5.9531c1.3438 0.76953 2.6562 1.3438 3.9375 1.7188s2.5664 0.5625 3.8594 0.5625c2.5078 0 4.3477-0.54688 5.5156-1.6406 1.1641-1.0938 1.75-2.8047 1.75-5.1406zm-5.0469-14.891c-1.5742 0-2.8047 0.58984-3.6875 1.7656-0.88672 1.168-1.3281 2.8203-1.3281 4.9531 0 2.1875 0.42578 3.8516 1.2812 4.9844 0.85156 1.1367 2.0977 1.7031 3.7344 1.7031 1.5938 0 2.832-0.58203 3.7188-1.75 0.88281-1.1758 1.3281-2.8203 1.3281-4.9375 0-2.1328-0.44531-3.7852-1.3281-4.9531-0.88672-1.1758-2.125-1.7656-3.7188-1.7656z"
         id="path898" />
    </symbol>
    <clipPath
       clipPathUnits="userSpaceOnUse"
       id="clipPath1550">
      <rect
         style="fill:#000080;stroke-width:5.36652;stroke-linecap:round;stroke-linejoin:round"
         id="rect1552"
         width="36.57473"
         height="15.259408"
         x="29.170391"
         y="225.99045"
         transform="rotate(-45)" />
    </clipPath>
    <clipPath
       clipPathUnits="userSpaceOnUse"
       id="clipPath1759">
      <path
         d="m 90.997031,205.81755 c -2.210926,-2.22268 -5.218975,-3.46893 -8.355779,-3.46224 l -76.2398785,0.002 3.4621432,-3.46214 -8.7308014,-8.7308 -4.3654092,4.36541 7.8275374,7.82753 H -15.42564 l 12.1929461,-12.19294 c 0.5788018,-0.57881 0.9042613,-1.3642 0.9042632,-2.1827 -1.9e-6,-0.8185 -0.3254539,-1.6039 -0.9042557,-2.1827 L -55.617516,133.41463 c -1.20535,-1.20535 -3.160058,-1.20535 -4.365405,0 l -52.384829,52.38482 c -0.5788,0.57881 -0.90427,1.3642 -0.90426,2.18271 10e-6,0.8185 0.32546,1.6039 0.90426,2.1827 l 17.204425,17.20442 -11.633675,3.87723 -9.3e-4,-9.4e-4 c -1.27066,0.4112 -2.13204,1.59418 -2.13486,2.93001 -0.002,1.33692 0.85455,2.52278 2.12413,2.93874 l 26.192418,8.7308 c 0.111108,0.037 0.22703,0.005 0.338116,0.0283 0.207536,0.0672 0.422901,0.11108 0.640201,0.12961 l 3.096718,-0.0117 16.55834,16.55834 c 0.578802,0.57881 1.3642,0.90427 2.182696,0.90427 0.818506,0 1.603904,-0.32545 2.182708,-0.90426 l 16.558346,-16.55834 74.211778,-6e-5 -3.462136,3.46213 8.730803,8.73081 4.365402,-4.3654 -7.827537,-7.82754 h 20.020482 l -7.827538,7.82754 4.365402,4.3654 8.730803,-8.73081 -3.462135,-3.46213 23.854798,-0.003 7.49e-4,7.5e-4 c 3.133709,10e-6 6.139876,-1.24439 8.355752,-3.46026 2.215828,-2.21583 3.46109,-5.22282 3.461266,-8.35676 1.77e-4,-3.13393 -1.246355,-6.13989 -3.462237,-8.35578 z m -196.817271,-17.83579 48.019418,-48.01942 48.0194279,48.01943 -14.3756429,14.37564 -55.470544,-0.002 c -0.217294,0.0205 -0.431666,0.0633 -0.640195,0.12962 -0.111093,0.0234 -0.22704,-0.009 -0.338122,0.0282 l -8.009638,2.67188 z m 23.106319,21.74407 4e-6,8.89644 -13.344667,-4.44822 z m 24.912602,26.27485 -10.010241,-10.01024 h 20.020482 z M -76.542336,219.81849 V 208.52881 H 70.075305 l 2e-6,11.28968 z m 159.182518,-0.002 -6.39319,0.003 -2e-6,-11.28967 6.393194,-0.003 7.48e-4,7.5e-4 c 1.496708,0 2.932026,0.59536 3.990126,1.65346 1.059197,1.0592 1.65262,2.49452 1.653488,3.9921 4e-6,1.49671 -0.593419,2.93203 -1.65249,3.9911 -1.061049,1.0554 -2.495483,1.6497 -3.992074,1.65152 z"
         id="path1761"
         style="stroke-width:0.352777" />
    </clipPath>
  </defs>
  <g
     inkscape:label="Layer 1"
     inkscape:groupmode="layer"
     id="layer1">
    <rect
       style="fill:#2a445a;fill-opacity:1;stroke:none;stroke-width:7;stroke-linecap:round;stroke-miterlimit:4;stroke-dasharray:none;stroke-opacity:1"
       id="rect15208"
       width="270.93329"
       height="270.93329"
       x="4.0944418e-05"
       y="0"
       rx="30"
       ry="30" />
    <rect
       style="fill:#355570;fill-opacity:1;stroke:none;stroke-width:6.62681;stroke-linecap:round;stroke-miterlimit:4;stroke-dasharray:none;stroke-opacity:1"
       id="rect858"
       width="256.48901"
       height="256.48901"
       x="7.2221599"
       y="7.2221599"
       rx="28.400608"
       ry="28.400608" />
    <g
       id="g6940"
       transform="translate(6.3731737,-1.2980823)">
      <path
         id="path965"
         style="fill:#ffffff;fill-opacity:1;stroke-width:1.33333"
         d="m 793.24219,306.85938 0.004,0.002 c -11.84893,-0.0314 -23.21864,4.67706 -31.58398,13.07812 L 557.91602,523.69922 v -18.50586 h -46.66797 v 23.33398 h 41.83984 l -53.50586,53.50586 v -65.17187 c 0,-3.09373 -1.22854,-6.06252 -3.41601,-8.25 -2.18748,-2.18748 -5.15627,-3.41797 -8.25,-3.41797 h -280 c -6.44267,0 -11.66797,5.22531 -11.66797,11.66797 v 280 c 0,3.09373 1.23047,6.06252 3.41797,8.25 2.18749,2.18744 5.15626,3.41601 8.25,3.41601 h 91.95703 l -20.72852,41.45313 h -0.006 c -2.29693,4.4948 -1.43753,9.95952 2.125,13.53711 3.56774,3.57815 9.02659,4.4571 13.53125,2.17578 l 93.33399,-46.66602 c 0.39583,-0.19804 0.61912,-0.59375 0.97851,-0.82812 0.73436,-0.37493 1.42637,-0.83402 2.05664,-1.36524 l 8.2461,-8.30664 h 88.5039 c 3.09373,0 6.06256,-1.22853 8.25,-3.41601 2.18748,-2.18748 3.41797,-5.15627 3.41797,-8.25 v -88.50586 l 182.3457,-182.3457 -0.002,-0.002 97.7461,-97.74804 45.15039,-45.16016 h 0.004 c 8.37494,-8.37493 13.08203,-19.73413 13.08203,-31.57813 0,-11.84373 -4.70697,-23.20798 -13.08203,-31.58398 -8.37505,-8.376 -19.73996,-13.07813 -31.58398,-13.07812 z m -0.004,23.33007 c 5.66147,0 11.08326,2.25 15.08789,6.25 4.00003,4 6.25,9.42124 6.25,15.08203 -0.0151,5.65627 -2.26105,11.07943 -6.25586,15.08399 l -17.07617,17.09375 -30.17187,-30.17188 17.07812,-17.09375 h 0.004 c 3.99998,-3.99999 9.42837,-6.24414 15.08398,-6.24414 z M 744.57812,370.02148 774.75,400.19336 382.91016,792.0332 352.73828,761.86133 Z m -525,158.50586 h 256.66797 v 76.83985 l -148.2539,148.24023 c -0.52604,0.63542 -0.98508,1.3222 -1.36524,2.05664 -0.23437,0.35944 -0.63022,0.58269 -0.82812,0.97852 l -14.26367,28.54687 -91.95704,0.006 z m 256.66407,203.16211 v 53.50586 h -53.50391 z m -136.79883,49.86524 23.77539,23.77539 -47.55078,23.77539 z"
         transform="scale(0.26458333)" />
      <g
         id="g4346"
         style="fill:#478cbf;fill-opacity:1">
        <path
           d="m 51.923354,68.843143 h 6.173611 v 12.347222 h -6.173611 z"
           id="path903"
           style="fill:#478cbf;fill-opacity:1;stroke-width:0.352778" />
        <path
           d="m 51.923354,93.537587 h 6.173611 v 12.347223 h -6.173611 z"
           id="path905"
           style="fill:#478cbf;fill-opacity:1;stroke-width:0.352778" />
        <path
           d="m 51.923354,118.23203 h 6.173611 v 12.34722 h -6.173611 z"
           id="path907"
           style="fill:#478cbf;fill-opacity:1;stroke-width:0.352778" />
        <path
           d="m 36.489326,59.582726 h 12.347222 v 6.173611 H 36.489326 Z"
           id="path909"
           style="fill:#478cbf;fill-opacity:1;stroke-width:0.352778" />
        <path
           d="m 61.18377,59.582726 h 12.347223 v 6.173611 H 61.18377 Z"
           id="path911"
           style="fill:#478cbf;fill-opacity:1;stroke-width:0.352778" />
        <path
           d="m 85.878215,59.582726 h 12.347222 v 6.173611 H 85.878215 Z"
           id="path913"
           style="fill:#478cbf;fill-opacity:1;stroke-width:0.352778" />
        <path
           d="m 110.57266,59.582726 h 12.34722 v 6.173611 h -12.34722 z"
           id="path915"
           style="fill:#478cbf;fill-opacity:1;stroke-width:0.352778" />
        <path
           d="m 135.2671,59.582726 h 12.34723 v 6.173611 H 135.2671 Z"
           id="path917"
           style="fill:#478cbf;fill-opacity:1;stroke-width:0.352778" />
        <path
           d="m 159.96155,59.582726 h 12.34722 v 6.173611 h -12.34722 z"
           id="path919"
           style="fill:#478cbf;fill-opacity:1;stroke-width:0.352778" />
        <path
           d="m 184.65599,59.582726 h 12.34723 v 6.173611 h -12.34723 z"
           id="path921"
           style="fill:#478cbf;fill-opacity:1;stroke-width:0.352778" />
        <path
           d="m 209.35044,59.582726 h 12.34722 v 6.173611 h -12.34722 z"
           id="path923"
           style="fill:#478cbf;fill-opacity:1;stroke-width:0.352778" />
        <path
           d="m 51.923354,217.00981 h 6.173611 v 12.34722 h -6.173611 z"
           id="path925"
           style="fill:#478cbf;fill-opacity:1;stroke-width:0.352778" />
        <path
           d="m 126.00669,68.843143 h 6.17361 v 12.347222 h -6.17361 z"
           id="path927"
           style="fill:#478cbf;fill-opacity:1;stroke-width:0.352778" />
        <path
           d="m 126.00669,93.537587 h 6.17361 v 12.347223 h -6.17361 z"
           id="path929"
           style="fill:#478cbf;fill-opacity:1;stroke-width:0.352778" />
        <path
           d="m 126.00669,118.23203 h 6.17361 v 12.34722 h -6.17361 z"
           id="path931"
           style="fill:#478cbf;fill-opacity:1;stroke-width:0.352778" />
        <path
           d="m 126.00669,217.00981 h 6.17361 v 12.34722 h -6.17361 z"
           id="path933"
           style="fill:#478cbf;fill-opacity:1;stroke-width:0.352778" />
        <path
           d="m 200.09002,68.843143 h 6.17361 v 12.347222 h -6.17361 z"
           id="path935"
           style="fill:#478cbf;fill-opacity:1;stroke-width:0.352778" />
        <path
           d="m 200.09002,142.92647 h 6.17361 v 12.34722 h -6.17361 z"
           id="path937"
           style="fill:#478cbf;fill-opacity:1;stroke-width:0.352778" />
        <path
           d="m 200.09002,167.62092 h 6.17361 v 12.34722 h -6.17361 z"
           id="path939"
           style="fill:#478cbf;fill-opacity:1;stroke-width:0.352778" />
        <path
           d="m 200.09002,192.31536 h 6.17361 v 12.34722 h -6.17361 z"
           id="path941"
           style="fill:#478cbf;fill-opacity:1;stroke-width:0.352778" />
        <path
           d="m 200.09002,217.00981 h 6.17361 v 12.34722 h -6.17361 z"
           id="path943"
           style="fill:#478cbf;fill-opacity:1;stroke-width:0.352778" />
        <path
           d="m 51.923354,44.148698 h 6.173611 V 56.49592 h -6.173611 z"
           id="path945"
           style="fill:#478cbf;fill-opacity:1;stroke-width:0.352778" />
        <path
           d="m 126.00669,44.148698 h 6.17361 V 56.49592 h -6.17361 z"
           id="path947"
           style="fill:#478cbf;fill-opacity:1;stroke-width:0.352778" />
        <path
           d="m 200.09002,44.148698 h 6.17361 V 56.49592 h -6.17361 z"
           id="path949"
           style="fill:#478cbf;fill-opacity:1;stroke-width:0.352778" />
        <path
           d="m 36.489326,133.66606 h 12.347222 v 6.17361 H 36.489326 Z"
           id="path951"
           style="fill:#478cbf;fill-opacity:1;stroke-width:0.352778" />
        <path
           d="m 209.35044,133.66606 h 12.34722 v 6.17361 h -12.34722 z"
           id="path953"
           style="fill:#478cbf;fill-opacity:1;stroke-width:0.352778" />
        <path
           d="M 36.489326,207.74939 H 48.836548 V 213.923 H 36.489326 Z"
           id="path955"
           style="fill:#478cbf;fill-opacity:1;stroke-width:0.352778" />
        <path
           d="m 135.2671,207.74939 h 12.34723 V 213.923 H 135.2671 Z"
           id="path957"
           style="fill:#478cbf;fill-opacity:1;stroke-width:0.352778" />
        <path
           d="m 159.96155,207.74939 h 12.34722 v 6.17361 h -12.34722 z"
           id="path959"
           style="fill:#478cbf;fill-opacity:1;stroke-width:0.352778" />
        <path
           d="m 184.65599,207.74939 h 12.34723 v 6.17361 h -12.34723 z"
           id="path961"
           style="fill:#478cbf;fill-opacity:1;stroke-width:0.352778" />
        <path
           d="m 209.35044,207.74939 h 12.34722 v 6.17361 h -12.34722 z"
           id="path963"
           style="fill:#478cbf;fill-opacity:1;stroke-width:0.352778" />
        <path
           d="m 209.8796,81.190365 c -3.13503,-0.0083 -6.14327,1.237474 -8.3566,3.460256 l -53.90797,53.911499 v -4.89621 h -12.34722 v 6.17362 h 11.06981 L 132.181,153.99615 v -17.24343 c 0,-0.81855 -0.32522,-1.60404 -0.90399,-2.18281 -0.57877,-0.57877 -1.36426,-0.904 -2.18281,-0.904 H 55.010865 c -1.704622,0 -3.086806,1.38219 -3.086806,3.08681 v 74.08333 c 0,0.81855 0.325219,1.60405 0.903993,2.18282 0.578775,0.57876 1.364262,0.90399 2.182813,0.90399 h 24.33073 l -5.484636,10.96786 h -0.0014 c -0.60773,1.18925 -0.380329,2.63483 0.562257,3.5814 0.943963,0.94672 2.38813,1.17962 3.579989,0.57602 l 24.694445,-12.34723 c 0.10473,-0.0524 0.16398,-0.15709 0.25907,-0.2191 0.1943,-0.0992 0.37758,-0.22049 0.54434,-0.36104 l 2.18144,-2.19798 h 23.41703 c 0.81855,0 1.60405,-0.32522 2.18281,-0.90399 0.57877,-0.57877 0.904,-1.36426 0.904,-2.18281 v -23.41704 l 52.47569,-52.47569 v 4.8962 h 12.34722 v -6.17361 h -11.06981 l 14.15662,-14.15662 v 11.06981 h 6.17361 v -12.34722 h -4.8962 l 16.86595,-16.86983 h 0.001 c 2.21587,-2.215866 3.46163,-5.221466 3.46163,-8.355189 0,-3.133654 -1.24573,-6.14045 -3.46163,-8.3566 -2.2159,-2.21615 -5.22287,-3.460256 -8.3566,-3.460256 z M 58.096965,207.74939 v -67.90972 h 67.909725 v 20.33023 l -39.225364,39.22183 c -0.139181,0.16812 -0.260449,0.35002 -0.361033,0.54434 -0.06201,0.0951 -0.166744,0.15434 -0.219106,0.25907 l -3.77437,7.55297 z m 31.714017,-0.96326 6.290733,6.29073 -12.581467,6.29074 z m 36.194998,0.96326 h -14.15662 l 14.15662,-14.15662 z m -24.69444,1.80936 -7.983011,-7.98301 103.674331,-103.674326 7.98301,7.983006 z m 112.55728,-112.560796 -4.51873,4.522606 -7.98301,-7.983008 4.51873,-4.522611 h 0.001 c 1.05833,-1.058333 2.49424,-1.65227 3.99062,-1.65227 1.49793,0 2.93247,0.595312 3.99203,1.653646 1.05834,1.058333 1.65365,2.492869 1.65365,3.990622 -0.004,1.496554 -0.59806,2.931085 -1.65502,3.990625 z"
           id="path1520"
           style="fill:#478cbf;fill-opacity:1;stroke-width:0.352778"
           clip-path="url(#clipPath1550)" />
        <rect
           style="fill:#478cbf;fill-opacity:1;stroke-width:5.36653;stroke-linecap:round;stroke-linejoin:round"
           id="rect1530"
           width="36.57473"
           height="15.259407"
           x="-4.4170794"
           y="187.0984"
           transform="rotate(-45)"
           rx="10"
           clip-path="url(#clipPath1759)" />
      </g>
    </g>
  </g>
</svg>
